# xmcd CD database file
#
# Track frame offsets:
#	150
#	12680
#	27472
#	43521
#	59272
#	60071
#	74528
#	92911
#	108372
#	124915
#	140984
#	154620
#	169534
#	178773
#	194152
#	207786
#
# Disc length: 2891 seconds
#
# Revision: 3
# Processed by: cddbd v1.5PL3 Copyright (c) Steve Scherf et al.
# Submitted via: CDex 1.40Beta9
#
DISCID=eb0b4910
DTITLE=Bubble - How 'Bout This?
DYEAR=1900
DGENRE=Rock
TTITLE0=Shake
TTITLE1=Don't Talk to Me
TTITLE2=Independently Wasted
TTITLE3=All I Want
TTITLE4=Cheap Advice
TTITLE5=$ex $ell$
TTITLE6=Sparklestar
TTITLE7=Drug
TTITLE8=Goin' Down For U
TTITLE9=6000 Miles
TTITLE10=Eye
TTITLE11=Baby Lately
TTITLE12=Slut Motorchopper
TTITLE13=Kickin' Walls
TTITLE14=Castle on the Hill
TTITLE15=Lullaby
EXTD=ID3G: 17
EXTT0=
EXTT1=
EXTT2=
EXTT3=
EXTT4=
EXTT5=
EXTT6=
EXTT7=
EXTT8=
EXTT9=
EXTT10=
EXTT11=
EXTT12=
EXTT13=
EXTT14=
EXTT15=
PLAYORDER=
